<svg width="668" height="668" viewBox="0 0 668 668" fill="none" xmlns="http://www.w3.org/2000/svg">
<path fill-rule="evenodd" clip-rule="evenodd" d="M267.333 400.667C285.743 400.667 300.667 415.59 300.667 434V634C300.667 652.409 285.743 667.333 267.333 667.333H34C15.5905 667.333 0.666626 652.409 0.666626 634V434C0.666626 415.59 15.5905 400.667 34 400.667H267.333ZM634 234C652.409 234 667.333 248.924 667.333 267.333V634C667.333 652.409 652.409 667.333 634 667.333H400.667C382.257 667.333 367.333 652.409 367.333 634V267.333C367.333 248.924 382.257 234 400.667 234H634ZM267.333 0.666626C285.743 0.666626 300.667 15.5905 300.667 34V300.667C300.667 319.076 285.743 334 267.333 334H34C15.5905 334 0.666626 319.076 0.666626 300.667V34C0.666626 15.5905 15.5905 0.666626 34 0.666626H267.333ZM634 0.666626C652.409 0.666626 667.333 15.5905 667.333 34V134C667.333 152.409 652.409 167.333 634 167.333H400.667C382.257 167.333 367.333 152.409 367.333 134V34C367.333 15.5905 382.257 0.666626 400.667 0.666626H634Z" fill="white"/>
</svg>
