<svg width="800" height="800" viewBox="0 0 800 800" fill="none" xmlns="http://www.w3.org/2000/svg">
<g clip-path="url(#clip0_19_2)">
<path d="M711.111 0H88.8889C65.3357 0.0703434 42.7673 9.45798 26.1127 26.1127C9.45798 42.7673 0.0703434 65.3357 0 88.8889L0 711.111C0.0703434 734.664 9.45798 757.233 26.1127 773.887C42.7673 790.542 65.3357 799.93 88.8889 800H711.111C734.664 799.93 757.233 790.542 773.887 773.887C790.542 757.233 799.93 734.664 800 711.111V88.8889C799.93 65.3357 790.542 42.7673 773.887 26.1127C757.233 9.45798 734.664 0.0703434 711.111 0ZM711.111 711.111H622.222V672.889C622.058 635.85 607.241 600.382 581.009 574.233C554.777 548.084 519.261 533.38 482.222 533.333H458.667C463.176 500.884 476.211 470.211 496.444 444.444C519.12 413.373 531.126 375.796 530.667 337.333C530.667 249.333 472 177.778 400 177.778C328 177.778 269.333 249.333 269.333 337.333C268.874 375.796 280.88 413.373 303.556 444.444C323.789 470.211 336.824 500.884 341.333 533.333H316C279.168 533.521 243.918 548.328 217.999 574.497C192.079 600.666 177.612 636.057 177.778 672.889V711.111H88.8889V88.8889H711.111V711.111Z" fill="white"/>
</g>
<defs>
<clipPath id="clip0_19_2">
<rect width="800" height="800" fill="white"/>
</clipPath>
</defs>
</svg>
