<svg width="600" height="600" viewBox="0 0 600 600" fill="none" xmlns="http://www.w3.org/2000/svg">
<path d="M75 0C33.5787 0 0 33.5787 0 75V525C0 566.42 33.5787 600 75 600H525C566.42 600 600 566.42 600 525V75C600 33.5787 566.42 0 525 0H75ZM259.343 192.678L192.678 259.343C182.915 269.107 167.085 269.107 157.322 259.343L123.989 226.011C114.226 216.248 114.226 200.419 123.989 190.656C133.752 180.893 149.581 180.893 159.344 190.656L175 206.311L223.989 157.322C233.753 147.559 249.58 147.559 259.343 157.322C269.107 167.085 269.107 182.915 259.343 192.678ZM458.333 183.333C472.14 183.333 483.333 194.526 483.333 208.333C483.333 222.14 472.14 233.333 458.333 233.333H341.667C327.86 233.333 316.667 222.14 316.667 208.333C316.667 194.526 327.86 183.333 341.667 183.333H458.333ZM316.67 391.667C316.67 377.86 327.86 366.667 341.67 366.667H458.33C472.14 366.667 483.33 377.86 483.33 391.667C483.33 405.473 472.14 416.667 458.33 416.667H341.67C327.86 416.667 316.67 405.473 316.67 391.667ZM259.343 340.657C269.107 350.42 269.107 366.247 259.343 376.01L192.678 442.677C182.915 452.44 167.085 452.44 157.322 442.677L123.989 409.343C114.226 399.58 114.226 383.753 123.989 373.99C133.752 364.227 149.581 364.227 159.344 373.99L175 389.643L223.989 340.657C233.753 330.893 249.58 330.893 259.343 340.657Z" fill="white"/>
</svg>
