<svg width="929" height="283" viewBox="0 0 929 283" fill="none" xmlns="http://www.w3.org/2000/svg">
<path d="M26.5 5V263" stroke="#F0F0F0"/>
<path d="M206.5 5V263" stroke="#F0F0F0"/>
<path d="M386.5 5V263" stroke="#F0F0F0"/>
<path d="M567.5 5V263" stroke="#F0F0F0"/>
<path d="M747.5 5V263" stroke="#F0F0F0"/>
<path d="M928.5 5V263" stroke="#F0F0F0"/>
<path d="M27 263.5H928" stroke="#F0F0F0"/>
<path d="M27 199.5H928" stroke="#F0F0F0"/>
<path d="M27 134.5H928" stroke="#F0F0F0"/>
<path d="M27 70.5H928" stroke="#F0F0F0"/>
<path d="M27 4.5H928" stroke="#F0F0F0"/>
<path d="M27 263.5H928" stroke="#F0F0F0"/>
<path d="M26.5 5V263" stroke="#F0F0F0"/>
<path d="M20.9453 272.891V280H20.0176V272.891H20.9453ZM23.2305 272.891V273.662H17.7373V272.891H23.2305ZM25.8525 280.098C25.4847 280.098 25.151 280.036 24.8516 279.912C24.5553 279.785 24.2998 279.608 24.085 279.38C23.8734 279.152 23.7106 278.882 23.5967 278.569C23.4827 278.257 23.4258 277.915 23.4258 277.544V277.339C23.4258 276.909 23.4893 276.527 23.6162 276.191C23.7432 275.853 23.9157 275.566 24.1338 275.332C24.3519 275.098 24.5993 274.92 24.876 274.8C25.1527 274.679 25.4391 274.619 25.7354 274.619C26.113 274.619 26.4385 274.684 26.7119 274.814C26.9886 274.945 27.2148 275.127 27.3906 275.361C27.5664 275.592 27.6966 275.866 27.7812 276.182C27.8659 276.494 27.9082 276.836 27.9082 277.207V277.612H23.9629V276.875H27.0049V276.807C26.9919 276.572 26.943 276.344 26.8584 276.123C26.777 275.902 26.6468 275.719 26.4678 275.576C26.2887 275.433 26.0446 275.361 25.7354 275.361C25.5303 275.361 25.3415 275.405 25.1689 275.493C24.9964 275.578 24.8483 275.705 24.7246 275.874C24.6009 276.043 24.5049 276.25 24.4365 276.494C24.3682 276.738 24.334 277.02 24.334 277.339V277.544C24.334 277.795 24.3682 278.031 24.4365 278.252C24.5081 278.47 24.6107 278.662 24.7441 278.828C24.8809 278.994 25.0452 279.124 25.2373 279.219C25.4326 279.313 25.654 279.36 25.9014 279.36C26.2204 279.36 26.4906 279.295 26.7119 279.165C26.9333 279.035 27.127 278.861 27.293 278.643L27.8398 279.077C27.7259 279.25 27.5811 279.414 27.4053 279.57C27.2295 279.727 27.013 279.854 26.7559 279.951C26.502 280.049 26.2008 280.098 25.8525 280.098ZM29.5732 274.717L30.7305 276.641L31.9023 274.717H32.9619L31.2334 277.324L33.0156 280H31.9707L30.75 278.018L29.5293 280H28.4795L30.2568 277.324L28.5332 274.717H29.5732ZM36.1357 274.717V275.41H33.2793V274.717H36.1357ZM34.2461 273.433H35.1494V278.691C35.1494 278.87 35.1771 279.006 35.2324 279.097C35.2878 279.188 35.3594 279.248 35.4473 279.277C35.5352 279.307 35.6296 279.321 35.7305 279.321C35.8053 279.321 35.8835 279.315 35.9648 279.302C36.0495 279.285 36.113 279.272 36.1553 279.263L36.1602 280C36.0885 280.023 35.9941 280.044 35.877 280.063C35.763 280.086 35.6247 280.098 35.4619 280.098C35.2406 280.098 35.0371 280.054 34.8516 279.966C34.666 279.878 34.5179 279.731 34.4072 279.526C34.2998 279.318 34.2461 279.038 34.2461 278.687V273.433Z" fill="#A3A3A3"/>
<path d="M201.145 272.891V280H200.218V272.891H201.145ZM203.43 272.891V273.662H197.937V272.891H203.43ZM206.053 280.098C205.685 280.098 205.351 280.036 205.052 279.912C204.755 279.785 204.5 279.608 204.285 279.38C204.073 279.152 203.911 278.882 203.797 278.569C203.683 278.257 203.626 277.915 203.626 277.544V277.339C203.626 276.909 203.689 276.527 203.816 276.191C203.943 275.853 204.116 275.566 204.334 275.332C204.552 275.098 204.799 274.92 205.076 274.8C205.353 274.679 205.639 274.619 205.935 274.619C206.313 274.619 206.638 274.684 206.912 274.814C207.189 274.945 207.415 275.127 207.591 275.361C207.766 275.592 207.897 275.866 207.981 276.182C208.066 276.494 208.108 276.836 208.108 277.207V277.612H204.163V276.875H207.205V276.807C207.192 276.572 207.143 276.344 207.058 276.123C206.977 275.902 206.847 275.719 206.668 275.576C206.489 275.433 206.245 275.361 205.935 275.361C205.73 275.361 205.541 275.405 205.369 275.493C205.196 275.578 205.048 275.705 204.925 275.874C204.801 276.043 204.705 276.25 204.637 276.494C204.568 276.738 204.534 277.02 204.534 277.339V277.544C204.534 277.795 204.568 278.031 204.637 278.252C204.708 278.47 204.811 278.662 204.944 278.828C205.081 278.994 205.245 279.124 205.437 279.219C205.633 279.313 205.854 279.36 206.101 279.36C206.42 279.36 206.691 279.295 206.912 279.165C207.133 279.035 207.327 278.861 207.493 278.643L208.04 279.077C207.926 279.25 207.781 279.414 207.605 279.57C207.43 279.727 207.213 279.854 206.956 279.951C206.702 280.049 206.401 280.098 206.053 280.098ZM209.773 274.717L210.93 276.641L212.102 274.717H213.162L211.433 277.324L213.216 280H212.171L210.95 278.018L209.729 280H208.68L210.457 277.324L208.733 274.717H209.773ZM216.336 274.717V275.41H213.479V274.717H216.336ZM214.446 273.433H215.349V278.691C215.349 278.87 215.377 279.006 215.432 279.097C215.488 279.188 215.559 279.248 215.647 279.277C215.735 279.307 215.83 279.321 215.93 279.321C216.005 279.321 216.083 279.315 216.165 279.302C216.249 279.285 216.313 279.272 216.355 279.263L216.36 280C216.289 280.023 216.194 280.044 216.077 280.063C215.963 280.086 215.825 280.098 215.662 280.098C215.441 280.098 215.237 280.054 215.052 279.966C214.866 279.878 214.718 279.731 214.607 279.526C214.5 279.318 214.446 279.038 214.446 278.687V273.433Z" fill="#A3A3A3"/>
<path d="M381.345 272.891V280H380.418V272.891H381.345ZM383.63 272.891V273.662H378.137V272.891H383.63ZM386.253 280.098C385.885 280.098 385.551 280.036 385.252 279.912C384.955 279.785 384.7 279.608 384.485 279.38C384.273 279.152 384.111 278.882 383.997 278.569C383.883 278.257 383.826 277.915 383.826 277.544V277.339C383.826 276.909 383.889 276.527 384.016 276.191C384.143 275.853 384.316 275.566 384.534 275.332C384.752 275.098 384.999 274.92 385.276 274.8C385.553 274.679 385.839 274.619 386.135 274.619C386.513 274.619 386.839 274.684 387.112 274.814C387.389 274.945 387.615 275.127 387.791 275.361C387.966 275.592 388.097 275.866 388.181 276.182C388.266 276.494 388.308 276.836 388.308 277.207V277.612H384.363V276.875H387.405V276.807C387.392 276.572 387.343 276.344 387.258 276.123C387.177 275.902 387.047 275.719 386.868 275.576C386.689 275.433 386.445 275.361 386.135 275.361C385.93 275.361 385.741 275.405 385.569 275.493C385.396 275.578 385.248 275.705 385.125 275.874C385.001 276.043 384.905 276.25 384.837 276.494C384.768 276.738 384.734 277.02 384.734 277.339V277.544C384.734 277.795 384.768 278.031 384.837 278.252C384.908 278.47 385.011 278.662 385.144 278.828C385.281 278.994 385.445 279.124 385.637 279.219C385.833 279.313 386.054 279.36 386.301 279.36C386.62 279.36 386.891 279.295 387.112 279.165C387.333 279.035 387.527 278.861 387.693 278.643L388.24 279.077C388.126 279.25 387.981 279.414 387.805 279.57C387.63 279.727 387.413 279.854 387.156 279.951C386.902 280.049 386.601 280.098 386.253 280.098ZM389.973 274.717L391.13 276.641L392.302 274.717H393.362L391.633 277.324L393.416 280H392.371L391.15 278.018L389.929 280H388.88L390.657 277.324L388.933 274.717H389.973ZM396.536 274.717V275.41H393.679V274.717H396.536ZM394.646 273.433H395.549V278.691C395.549 278.87 395.577 279.006 395.632 279.097C395.688 279.188 395.759 279.248 395.847 279.277C395.935 279.307 396.03 279.321 396.13 279.321C396.205 279.321 396.283 279.315 396.365 279.302C396.45 279.285 396.513 279.272 396.555 279.263L396.56 280C396.489 280.023 396.394 280.044 396.277 280.063C396.163 280.086 396.025 280.098 395.862 280.098C395.641 280.098 395.437 280.054 395.252 279.966C395.066 279.878 394.918 279.731 394.807 279.526C394.7 279.318 394.646 279.038 394.646 278.687V273.433Z" fill="#A3A3A3"/>
<path d="M561.545 272.891V280H560.618V272.891H561.545ZM563.83 272.891V273.662H558.337V272.891H563.83ZM566.453 280.098C566.085 280.098 565.751 280.036 565.452 279.912C565.155 279.785 564.9 279.608 564.685 279.38C564.473 279.152 564.311 278.882 564.197 278.569C564.083 278.257 564.026 277.915 564.026 277.544V277.339C564.026 276.909 564.089 276.527 564.216 276.191C564.343 275.853 564.516 275.566 564.734 275.332C564.952 275.098 565.199 274.92 565.476 274.8C565.753 274.679 566.039 274.619 566.335 274.619C566.713 274.619 567.038 274.684 567.312 274.814C567.589 274.945 567.815 275.127 567.991 275.361C568.166 275.592 568.297 275.866 568.381 276.182C568.466 276.494 568.508 276.836 568.508 277.207V277.612H564.563V276.875H567.605V276.807C567.592 276.572 567.543 276.344 567.458 276.123C567.377 275.902 567.247 275.719 567.068 275.576C566.889 275.433 566.645 275.361 566.335 275.361C566.13 275.361 565.941 275.405 565.769 275.493C565.596 275.578 565.448 275.705 565.325 275.874C565.201 276.043 565.105 276.25 565.036 276.494C564.968 276.738 564.934 277.02 564.934 277.339V277.544C564.934 277.795 564.968 278.031 565.036 278.252C565.108 278.47 565.211 278.662 565.344 278.828C565.481 278.994 565.645 279.124 565.837 279.219C566.033 279.313 566.254 279.36 566.501 279.36C566.82 279.36 567.091 279.295 567.312 279.165C567.533 279.035 567.727 278.861 567.893 278.643L568.44 279.077C568.326 279.25 568.181 279.414 568.005 279.57C567.829 279.727 567.613 279.854 567.356 279.951C567.102 280.049 566.801 280.098 566.453 280.098ZM570.173 274.717L571.33 276.641L572.502 274.717H573.562L571.833 277.324L573.616 280H572.571L571.35 278.018L570.129 280H569.079L570.857 277.324L569.133 274.717H570.173ZM576.736 274.717V275.41H573.879V274.717H576.736ZM574.846 273.433H575.749V278.691C575.749 278.87 575.777 279.006 575.832 279.097C575.888 279.188 575.959 279.248 576.047 279.277C576.135 279.307 576.23 279.321 576.33 279.321C576.405 279.321 576.483 279.315 576.565 279.302C576.649 279.285 576.713 279.272 576.755 279.263L576.76 280C576.689 280.023 576.594 280.044 576.477 280.063C576.363 280.086 576.225 280.098 576.062 280.098C575.841 280.098 575.637 280.054 575.452 279.966C575.266 279.878 575.118 279.731 575.007 279.526C574.9 279.318 574.846 279.038 574.846 278.687V273.433Z" fill="#A3A3A3"/>
<path d="M741.745 272.891V280H740.818V272.891H741.745ZM744.031 272.891V273.662H738.537V272.891H744.031ZM746.653 280.098C746.285 280.098 745.951 280.036 745.652 279.912C745.355 279.785 745.1 279.608 744.885 279.38C744.673 279.152 744.511 278.882 744.397 278.569C744.283 278.257 744.226 277.915 744.226 277.544V277.339C744.226 276.909 744.289 276.527 744.416 276.191C744.543 275.853 744.716 275.566 744.934 275.332C745.152 275.098 745.399 274.92 745.676 274.8C745.953 274.679 746.239 274.619 746.535 274.619C746.913 274.619 747.239 274.684 747.512 274.814C747.789 274.945 748.015 275.127 748.191 275.361C748.366 275.592 748.497 275.866 748.581 276.182C748.666 276.494 748.708 276.836 748.708 277.207V277.612H744.763V276.875H747.805V276.807C747.792 276.572 747.743 276.344 747.658 276.123C747.577 275.902 747.447 275.719 747.268 275.576C747.089 275.433 746.845 275.361 746.535 275.361C746.33 275.361 746.142 275.405 745.969 275.493C745.796 275.578 745.648 275.705 745.525 275.874C745.401 276.043 745.305 276.25 745.237 276.494C745.168 276.738 745.134 277.02 745.134 277.339V277.544C745.134 277.795 745.168 278.031 745.237 278.252C745.308 278.47 745.411 278.662 745.544 278.828C745.681 278.994 745.845 279.124 746.037 279.219C746.233 279.313 746.454 279.36 746.701 279.36C747.02 279.36 747.291 279.295 747.512 279.165C747.733 279.035 747.927 278.861 748.093 278.643L748.64 279.077C748.526 279.25 748.381 279.414 748.205 279.57C748.03 279.727 747.813 279.854 747.556 279.951C747.302 280.049 747.001 280.098 746.653 280.098ZM750.373 274.717L751.531 276.641L752.702 274.717H753.762L752.033 277.324L753.816 280H752.771L751.55 278.018L750.329 280H749.28L751.057 277.324L749.333 274.717H750.373ZM756.936 274.717V275.41H754.079V274.717H756.936ZM755.046 273.433H755.949V278.691C755.949 278.87 755.977 279.006 756.032 279.097C756.088 279.188 756.159 279.248 756.247 279.277C756.335 279.307 756.43 279.321 756.531 279.321C756.605 279.321 756.684 279.315 756.765 279.302C756.85 279.285 756.913 279.272 756.955 279.263L756.96 280C756.889 280.023 756.794 280.044 756.677 280.063C756.563 280.086 756.425 280.098 756.262 280.098C756.041 280.098 755.837 280.054 755.652 279.966C755.466 279.878 755.318 279.731 755.207 279.526C755.1 279.318 755.046 279.038 755.046 278.687V273.433Z" fill="#A3A3A3"/>
<path d="M912.165 272.891V280H911.237V272.891H912.165ZM914.45 272.891V273.662H908.957V272.891H914.45ZM917.072 280.098C916.704 280.098 916.37 280.036 916.071 279.912C915.775 279.785 915.519 279.608 915.304 279.38C915.093 279.152 914.93 278.882 914.816 278.569C914.702 278.257 914.645 277.915 914.645 277.544V277.339C914.645 276.909 914.708 276.527 914.835 276.191C914.962 275.853 915.135 275.566 915.353 275.332C915.571 275.098 915.819 274.92 916.095 274.8C916.372 274.679 916.658 274.619 916.955 274.619C917.332 274.619 917.658 274.684 917.931 274.814C918.208 274.945 918.434 275.127 918.61 275.361C918.786 275.592 918.916 275.866 919 276.182C919.085 276.494 919.127 276.836 919.127 277.207V277.612H915.182V276.875H918.224V276.807C918.211 276.572 918.162 276.344 918.078 276.123C917.996 275.902 917.866 275.719 917.687 275.576C917.508 275.433 917.264 275.361 916.955 275.361C916.75 275.361 916.561 275.405 916.388 275.493C916.216 275.578 916.068 275.705 915.944 275.874C915.82 276.043 915.724 276.25 915.656 276.494C915.587 276.738 915.553 277.02 915.553 277.339V277.544C915.553 277.795 915.587 278.031 915.656 278.252C915.727 278.47 915.83 278.662 915.963 278.828C916.1 278.994 916.264 279.124 916.457 279.219C916.652 279.313 916.873 279.36 917.121 279.36C917.44 279.36 917.71 279.295 917.931 279.165C918.153 279.035 918.346 278.861 918.512 278.643L919.059 279.077C918.945 279.25 918.8 279.414 918.625 279.57C918.449 279.727 918.232 279.854 917.975 279.951C917.721 280.049 917.42 280.098 917.072 280.098ZM920.792 274.717L921.95 276.641L923.122 274.717H924.181L922.453 277.324L924.235 280H923.19L921.969 278.018L920.749 280H919.699L921.476 277.324L919.752 274.717H920.792ZM927.355 274.717V275.41H924.499V274.717H927.355ZM925.465 273.433H926.369V278.691C926.369 278.87 926.396 279.006 926.452 279.097C926.507 279.188 926.579 279.248 926.667 279.277C926.754 279.307 926.849 279.321 926.95 279.321C927.025 279.321 927.103 279.315 927.184 279.302C927.269 279.285 927.332 279.272 927.375 279.263L927.379 280C927.308 280.023 927.213 280.044 927.096 280.063C926.982 280.086 926.844 280.098 926.681 280.098C926.46 280.098 926.256 280.054 926.071 279.966C925.885 279.878 925.737 279.731 925.626 279.526C925.519 279.318 925.465 279.038 925.465 278.687V273.433Z" fill="#A3A3A3"/>
<path d="M16.4287 262.879V263.963C16.4287 264.546 16.3766 265.037 16.2725 265.438C16.1683 265.838 16.0186 266.16 15.8232 266.404C15.6279 266.648 15.3919 266.826 15.1152 266.937C14.8418 267.044 14.5326 267.098 14.1875 267.098C13.9141 267.098 13.6618 267.063 13.4307 266.995C13.1995 266.927 12.9912 266.818 12.8057 266.668C12.6234 266.515 12.4671 266.316 12.3369 266.072C12.2067 265.828 12.1074 265.532 12.0391 265.184C11.9707 264.835 11.9365 264.428 11.9365 263.963V262.879C11.9365 262.296 11.9886 261.808 12.0928 261.414C12.2002 261.02 12.3516 260.704 12.5469 260.467C12.7422 260.226 12.9766 260.053 13.25 259.949C13.5267 259.845 13.8359 259.793 14.1777 259.793C14.4544 259.793 14.7083 259.827 14.9395 259.896C15.1738 259.961 15.3822 260.066 15.5645 260.213C15.7467 260.356 15.9014 260.548 16.0283 260.789C16.1585 261.027 16.2578 261.318 16.3262 261.663C16.3945 262.008 16.4287 262.413 16.4287 262.879ZM15.5205 264.109V262.728C15.5205 262.409 15.501 262.129 15.4619 261.888C15.4261 261.644 15.3724 261.435 15.3008 261.263C15.2292 261.09 15.138 260.95 15.0273 260.843C14.9199 260.735 14.7946 260.657 14.6514 260.608C14.5114 260.556 14.3535 260.53 14.1777 260.53C13.9629 260.53 13.7725 260.571 13.6064 260.652C13.4404 260.73 13.3005 260.856 13.1865 261.028C13.0758 261.201 12.9912 261.427 12.9326 261.707C12.874 261.987 12.8447 262.327 12.8447 262.728V264.109C12.8447 264.428 12.8626 264.71 12.8984 264.954C12.9375 265.198 12.9945 265.41 13.0693 265.589C13.1442 265.765 13.2354 265.91 13.3428 266.023C13.4502 266.137 13.5739 266.222 13.7139 266.277C13.8571 266.329 14.015 266.355 14.1875 266.355C14.4089 266.355 14.6025 266.313 14.7686 266.229C14.9346 266.144 15.0729 266.012 15.1836 265.833C15.2975 265.651 15.3822 265.418 15.4375 265.135C15.4928 264.848 15.5205 264.507 15.5205 264.109Z" fill="#A3A3A3"/>
<path d="M10.999 201.258V202H6.3457V201.351L8.6748 198.758C8.96126 198.439 9.18262 198.169 9.33887 197.947C9.49837 197.723 9.60905 197.522 9.6709 197.347C9.736 197.168 9.76855 196.985 9.76855 196.8C9.76855 196.565 9.71973 196.354 9.62207 196.165C9.52767 195.973 9.3877 195.82 9.20215 195.706C9.0166 195.592 8.79199 195.535 8.52832 195.535C8.21257 195.535 7.94889 195.597 7.7373 195.721C7.52897 195.841 7.37272 196.01 7.26855 196.229C7.16439 196.447 7.1123 196.697 7.1123 196.98H6.20898C6.20898 196.58 6.29688 196.214 6.47266 195.882C6.64844 195.55 6.90885 195.286 7.25391 195.091C7.59896 194.892 8.02376 194.793 8.52832 194.793C8.97754 194.793 9.36165 194.873 9.68066 195.032C9.99967 195.188 10.2438 195.41 10.4131 195.696C10.5856 195.979 10.6719 196.312 10.6719 196.692C10.6719 196.901 10.6361 197.112 10.5645 197.327C10.4961 197.539 10.4001 197.75 10.2764 197.962C10.1559 198.174 10.0143 198.382 9.85156 198.587C9.69206 198.792 9.52116 198.994 9.33887 199.192L7.43457 201.258H10.999ZM13.1084 198.616L12.3857 198.431L12.7422 194.891H16.3896V195.726H13.5088L13.2939 197.659C13.4242 197.584 13.5885 197.514 13.7871 197.449C13.9889 197.384 14.2201 197.352 14.4805 197.352C14.8092 197.352 15.1038 197.409 15.3643 197.522C15.6247 197.633 15.846 197.793 16.0283 198.001C16.2139 198.209 16.3555 198.46 16.4531 198.753C16.5508 199.046 16.5996 199.373 16.5996 199.734C16.5996 200.076 16.5524 200.39 16.458 200.677C16.3669 200.963 16.2285 201.214 16.043 201.429C15.8574 201.64 15.623 201.805 15.3398 201.922C15.0599 202.039 14.7295 202.098 14.3486 202.098C14.0622 202.098 13.7904 202.059 13.5332 201.98C13.2793 201.899 13.0514 201.777 12.8496 201.614C12.651 201.448 12.4883 201.243 12.3613 200.999C12.2376 200.752 12.1595 200.462 12.127 200.13H12.9863C13.0254 200.397 13.1035 200.621 13.2207 200.804C13.3379 200.986 13.4909 201.124 13.6797 201.219C13.8717 201.31 14.0947 201.355 14.3486 201.355C14.5635 201.355 14.7539 201.318 14.9199 201.243C15.0859 201.168 15.2259 201.061 15.3398 200.921C15.4538 200.781 15.54 200.612 15.5986 200.413C15.6605 200.215 15.6914 199.992 15.6914 199.744C15.6914 199.52 15.6605 199.311 15.5986 199.119C15.5368 198.927 15.444 198.759 15.3203 198.616C15.1999 198.473 15.0518 198.362 14.876 198.284C14.7002 198.203 14.4984 198.162 14.2705 198.162C13.9678 198.162 13.7383 198.203 13.582 198.284C13.429 198.366 13.2712 198.476 13.1084 198.616Z" fill="#A3A3A3"/>
<path d="M7.4834 134.616L6.76074 134.431L7.11719 130.891H10.7646V131.726H7.88379L7.66895 133.659C7.79915 133.584 7.96354 133.514 8.16211 133.449C8.36393 133.384 8.59505 133.352 8.85547 133.352C9.18424 133.352 9.47884 133.409 9.73926 133.522C9.99967 133.633 10.221 133.793 10.4033 134.001C10.5889 134.209 10.7305 134.46 10.8281 134.753C10.9258 135.046 10.9746 135.373 10.9746 135.734C10.9746 136.076 10.9274 136.39 10.833 136.677C10.7419 136.963 10.6035 137.214 10.418 137.429C10.2324 137.64 9.99805 137.805 9.71484 137.922C9.4349 138.039 9.10449 138.098 8.72363 138.098C8.43717 138.098 8.16536 138.059 7.9082 137.98C7.6543 137.899 7.42643 137.777 7.22461 137.614C7.02604 137.448 6.86328 137.243 6.73633 136.999C6.61263 136.752 6.53451 136.462 6.50195 136.13H7.36133C7.40039 136.397 7.47852 136.621 7.5957 136.804C7.71289 136.986 7.86589 137.124 8.05469 137.219C8.24674 137.31 8.46973 137.355 8.72363 137.355C8.93848 137.355 9.12891 137.318 9.29492 137.243C9.46094 137.168 9.60091 137.061 9.71484 136.921C9.82878 136.781 9.91504 136.612 9.97363 136.413C10.0355 136.215 10.0664 135.992 10.0664 135.744C10.0664 135.52 10.0355 135.311 9.97363 135.119C9.91178 134.927 9.81901 134.759 9.69531 134.616C9.57487 134.473 9.42676 134.362 9.25098 134.284C9.0752 134.203 8.87337 134.162 8.64551 134.162C8.34277 134.162 8.11328 134.203 7.95703 134.284C7.80404 134.366 7.64616 134.476 7.4834 134.616ZM16.4287 133.879V134.963C16.4287 135.546 16.3766 136.037 16.2725 136.438C16.1683 136.838 16.0186 137.16 15.8232 137.404C15.6279 137.648 15.3919 137.826 15.1152 137.937C14.8418 138.044 14.5326 138.098 14.1875 138.098C13.9141 138.098 13.6618 138.063 13.4307 137.995C13.1995 137.927 12.9912 137.818 12.8057 137.668C12.6234 137.515 12.4671 137.316 12.3369 137.072C12.2067 136.828 12.1074 136.532 12.0391 136.184C11.9707 135.835 11.9365 135.428 11.9365 134.963V133.879C11.9365 133.296 11.9886 132.808 12.0928 132.414C12.2002 132.02 12.3516 131.704 12.5469 131.467C12.7422 131.226 12.9766 131.053 13.25 130.949C13.5267 130.845 13.8359 130.793 14.1777 130.793C14.4544 130.793 14.7083 130.827 14.9395 130.896C15.1738 130.961 15.3822 131.066 15.5645 131.213C15.7467 131.356 15.9014 131.548 16.0283 131.789C16.1585 132.027 16.2578 132.318 16.3262 132.663C16.3945 133.008 16.4287 133.413 16.4287 133.879ZM15.5205 135.109V133.728C15.5205 133.409 15.501 133.129 15.4619 132.888C15.4261 132.644 15.3724 132.435 15.3008 132.263C15.2292 132.09 15.138 131.95 15.0273 131.843C14.9199 131.735 14.7946 131.657 14.6514 131.608C14.5114 131.556 14.3535 131.53 14.1777 131.53C13.9629 131.53 13.7725 131.571 13.6064 131.652C13.4404 131.73 13.3005 131.856 13.1865 132.028C13.0758 132.201 12.9912 132.427 12.9326 132.707C12.874 132.987 12.8447 133.327 12.8447 133.728V135.109C12.8447 135.428 12.8626 135.71 12.8984 135.954C12.9375 136.198 12.9945 136.41 13.0693 136.589C13.1442 136.765 13.2354 136.91 13.3428 137.023C13.4502 137.137 13.5739 137.222 13.7139 137.277C13.8571 137.329 14.015 137.355 14.1875 137.355C14.4089 137.355 14.6025 137.313 14.7686 137.229C14.9346 137.144 15.0729 137.012 15.1836 136.833C15.2975 136.651 15.3822 136.418 15.4375 136.135C15.4928 135.848 15.5205 135.507 15.5205 135.109Z" fill="#A3A3A3"/>
<path d="M10.9355 65.8906V66.3984L7.99121 73H7.03906L9.97852 66.6328H6.13086V65.8906H10.9355ZM13.1084 69.6162L12.3857 69.4307L12.7422 65.8906H16.3896V66.7256H13.5088L13.2939 68.6592C13.4242 68.5843 13.5885 68.5143 13.7871 68.4492C13.9889 68.3841 14.2201 68.3516 14.4805 68.3516C14.8092 68.3516 15.1038 68.4085 15.3643 68.5225C15.6247 68.6331 15.846 68.7926 16.0283 69.001C16.2139 69.2093 16.3555 69.46 16.4531 69.7529C16.5508 70.0459 16.5996 70.373 16.5996 70.7344C16.5996 71.0762 16.5524 71.3903 16.458 71.6768C16.3669 71.9632 16.2285 72.2139 16.043 72.4287C15.8574 72.6403 15.623 72.8047 15.3398 72.9219C15.0599 73.0391 14.7295 73.0977 14.3486 73.0977C14.0622 73.0977 13.7904 73.0586 13.5332 72.9805C13.2793 72.8991 13.0514 72.777 12.8496 72.6143C12.651 72.4482 12.4883 72.2432 12.3613 71.999C12.2376 71.7516 12.1595 71.4619 12.127 71.1299H12.9863C13.0254 71.3968 13.1035 71.6214 13.2207 71.8037C13.3379 71.986 13.4909 72.1243 13.6797 72.2188C13.8717 72.3099 14.0947 72.3555 14.3486 72.3555C14.5635 72.3555 14.7539 72.318 14.9199 72.2432C15.0859 72.1683 15.2259 72.0609 15.3398 71.9209C15.4538 71.7809 15.54 71.6117 15.5986 71.4131C15.6605 71.2145 15.6914 70.9915 15.6914 70.7441C15.6914 70.5195 15.6605 70.3112 15.5986 70.1191C15.5368 69.9271 15.444 69.7594 15.3203 69.6162C15.1999 69.473 15.0518 69.3623 14.876 69.2842C14.7002 69.2028 14.4984 69.1621 14.2705 69.1621C13.9678 69.1621 13.7383 69.2028 13.582 69.2842C13.429 69.3656 13.2712 69.4762 13.1084 69.6162Z" fill="#A3A3A3"/>
<path d="M3.68457 1.85156V9H2.78125V2.97949L0.959961 3.64355V2.82812L3.54297 1.85156H3.68457ZM10.8037 4.87891V5.96289C10.8037 6.54557 10.7516 7.03711 10.6475 7.4375C10.5433 7.83789 10.3936 8.16016 10.1982 8.4043C10.0029 8.64844 9.76693 8.82585 9.49023 8.93652C9.2168 9.04395 8.90755 9.09766 8.5625 9.09766C8.28906 9.09766 8.03678 9.06348 7.80566 8.99512C7.57454 8.92676 7.36621 8.81771 7.18066 8.66797C6.99837 8.51497 6.84212 8.31641 6.71191 8.07227C6.58171 7.82812 6.48242 7.5319 6.41406 7.18359C6.3457 6.83529 6.31152 6.42839 6.31152 5.96289V4.87891C6.31152 4.29622 6.36361 3.80794 6.46777 3.41406C6.5752 3.02018 6.72656 2.70443 6.92188 2.4668C7.11719 2.22591 7.35156 2.05339 7.625 1.94922C7.90169 1.84505 8.21094 1.79297 8.55273 1.79297C8.82943 1.79297 9.08333 1.82715 9.31445 1.89551C9.54883 1.96061 9.75716 2.06641 9.93945 2.21289C10.1217 2.35612 10.2764 2.54818 10.4033 2.78906C10.5335 3.02669 10.6328 3.31803 10.7012 3.66309C10.7695 4.00814 10.8037 4.41341 10.8037 4.87891ZM9.89551 6.10938V4.72754C9.89551 4.40853 9.87598 4.12858 9.83691 3.8877C9.80111 3.64355 9.7474 3.43522 9.67578 3.2627C9.60417 3.09017 9.51302 2.9502 9.40234 2.84277C9.29492 2.73535 9.1696 2.65723 9.02637 2.6084C8.88639 2.55632 8.72852 2.53027 8.55273 2.53027C8.33789 2.53027 8.14746 2.57096 7.98145 2.65234C7.81543 2.73047 7.67546 2.85579 7.56152 3.02832C7.45085 3.20085 7.36621 3.42708 7.30762 3.70703C7.24902 3.98698 7.21973 4.32715 7.21973 4.72754V6.10938C7.21973 6.42839 7.23763 6.70996 7.27344 6.9541C7.3125 7.19824 7.36947 7.40983 7.44434 7.58887C7.51921 7.76465 7.61035 7.90951 7.71777 8.02344C7.8252 8.13737 7.94889 8.22201 8.08887 8.27734C8.2321 8.32943 8.38997 8.35547 8.5625 8.35547C8.78385 8.35547 8.97754 8.31315 9.14355 8.22852C9.30957 8.14388 9.44792 8.01204 9.55859 7.83301C9.67253 7.65072 9.75716 7.41797 9.8125 7.13477C9.86784 6.84831 9.89551 6.50651 9.89551 6.10938ZM16.4287 4.87891V5.96289C16.4287 6.54557 16.3766 7.03711 16.2725 7.4375C16.1683 7.83789 16.0186 8.16016 15.8232 8.4043C15.6279 8.64844 15.3919 8.82585 15.1152 8.93652C14.8418 9.04395 14.5326 9.09766 14.1875 9.09766C13.9141 9.09766 13.6618 9.06348 13.4307 8.99512C13.1995 8.92676 12.9912 8.81771 12.8057 8.66797C12.6234 8.51497 12.4671 8.31641 12.3369 8.07227C12.2067 7.82812 12.1074 7.5319 12.0391 7.18359C11.9707 6.83529 11.9365 6.42839 11.9365 5.96289V4.87891C11.9365 4.29622 11.9886 3.80794 12.0928 3.41406C12.2002 3.02018 12.3516 2.70443 12.5469 2.4668C12.7422 2.22591 12.9766 2.05339 13.25 1.94922C13.5267 1.84505 13.8359 1.79297 14.1777 1.79297C14.4544 1.79297 14.7083 1.82715 14.9395 1.89551C15.1738 1.96061 15.3822 2.06641 15.5645 2.21289C15.7467 2.35612 15.9014 2.54818 16.0283 2.78906C16.1585 3.02669 16.2578 3.31803 16.3262 3.66309C16.3945 4.00814 16.4287 4.41341 16.4287 4.87891ZM15.5205 6.10938V4.72754C15.5205 4.40853 15.501 4.12858 15.4619 3.8877C15.4261 3.64355 15.3724 3.43522 15.3008 3.2627C15.2292 3.09017 15.138 2.9502 15.0273 2.84277C14.9199 2.73535 14.7946 2.65723 14.6514 2.6084C14.5114 2.55632 14.3535 2.53027 14.1777 2.53027C13.9629 2.53027 13.7725 2.57096 13.6064 2.65234C13.4404 2.73047 13.3005 2.85579 13.1865 3.02832C13.0758 3.20085 12.9912 3.42708 12.9326 3.70703C12.874 3.98698 12.8447 4.32715 12.8447 4.72754V6.10938C12.8447 6.42839 12.8626 6.70996 12.8984 6.9541C12.9375 7.19824 12.9945 7.40983 13.0693 7.58887C13.1442 7.76465 13.2354 7.90951 13.3428 8.02344C13.4502 8.13737 13.5739 8.22201 13.7139 8.27734C13.8571 8.32943 14.015 8.35547 14.1875 8.35547C14.4089 8.35547 14.6025 8.31315 14.7686 8.22852C14.9346 8.14388 15.0729 8.01204 15.1836 7.83301C15.2975 7.65072 15.3822 7.41797 15.4375 7.13477C15.4928 6.84831 15.5205 6.50651 15.5205 6.10938Z" fill="#A3A3A3"/>
<path d="M27 141.74C27 141.74 135.12 108.2 207.2 108.2C279.28 108.2 315.32 108.2 387.4 108.2C459.48 108.2 495.52 224.3 567.6 224.3C639.68 224.3 675.72 126.26 747.8 126.26C819.88 126.26 928 172.7 928 172.7V263C928 263 819.88 263 747.8 263C675.72 263 639.68 263 567.6 263C495.52 263 459.48 263 387.4 263C315.32 263 279.28 263 207.2 263C135.12 263 27 263 27 263V141.74Z" fill="#FF31A0" fill-opacity="0.78"/>
<path d="M27 30.8C27 30.8 135.12 105.62 207.2 105.62C279.28 105.62 315.32 17.9 387.4 17.9C459.48 17.9 495.52 128.84 567.6 128.84C639.68 128.84 675.72 56.6 747.8 56.6C819.88 56.6 928 64.34 928 64.34V263C928 263 819.88 263 747.8 263C675.72 263 639.68 263 567.6 263C495.52 263 459.48 263 387.4 263C315.32 263 279.28 263 207.2 263C135.12 263 27 263 27 263V30.8Z" fill="#572EF8" fill-opacity="0.61"/>
<path d="M27 229.46C27 229.46 135.12 92.72 207.2 92.72C279.28 92.72 315.32 170.12 387.4 170.12C459.48 170.12 495.52 87.56 567.6 87.56C639.68 87.56 675.72 100.46 747.8 100.46C819.88 100.46 928 48.86 928 48.86V263C928 263 819.88 263 747.8 263C675.72 263 639.68 263 567.6 263C495.52 263 459.48 263 387.4 263C315.32 263 279.28 263 207.2 263C135.12 263 27 263 27 263V229.46Z" fill="#957AFF" fill-opacity="0.71"/>
</svg>
