<svg width="83" height="28" viewBox="0 0 83 28" fill="none" xmlns="http://www.w3.org/2000/svg">
<g filter="url(#filter0_d_1_88)">
<path d="M13.38 22L8.66 15.8V22H5.24V7.96H8.66V14.12L13.34 7.96H17.36L11.92 14.84L17.56 22H13.38ZM18.5053 16.4C18.5053 15.2533 18.7186 14.2467 19.1453 13.38C19.5853 12.5133 20.1786 11.8467 20.9253 11.38C21.672 10.9133 22.5053 10.68 23.4253 10.68C24.212 10.68 24.8986 10.84 25.4853 11.16C26.0853 11.48 26.5453 11.9 26.8653 12.42V10.84H30.2853V22H26.8653V20.42C26.532 20.94 26.0653 21.36 25.4653 21.68C24.8786 22 24.192 22.16 23.4053 22.16C22.4986 22.16 21.672 21.9267 20.9253 21.46C20.1786 20.98 19.5853 20.3067 19.1453 19.44C18.7186 18.56 18.5053 17.5467 18.5053 16.4ZM26.8653 16.42C26.8653 15.5667 26.6253 14.8933 26.1453 14.4C25.6786 13.9067 25.1053 13.66 24.4253 13.66C23.7453 13.66 23.1653 13.9067 22.6853 14.4C22.2186 14.88 21.9853 15.5467 21.9853 16.4C21.9853 17.2533 22.2186 17.9333 22.6853 18.44C23.1653 18.9333 23.7453 19.18 24.4253 19.18C25.1053 19.18 25.6786 18.9333 26.1453 18.44C26.6253 17.9467 26.8653 17.2733 26.8653 16.42ZM34.4795 9.68C33.8795 9.68 33.3862 9.50667 32.9995 9.16C32.6262 8.8 32.4395 8.36 32.4395 7.84C32.4395 7.30667 32.6262 6.86667 32.9995 6.52C33.3862 6.16 33.8795 5.98 34.4795 5.98C35.0662 5.98 35.5462 6.16 35.9195 6.52C36.3062 6.86667 36.4995 7.30667 36.4995 7.84C36.4995 8.36 36.3062 8.8 35.9195 9.16C35.5462 9.50667 35.0662 9.68 34.4795 9.68ZM36.1795 10.84V22H32.7595V10.84H36.1795ZM41.858 19.18H46.698V22H38.038V19.28L42.678 13.66H38.078V10.84H46.598V13.56L41.858 19.18ZM59.0998 16.24C59.0998 16.56 59.0798 16.8933 59.0398 17.24H51.2998C51.3532 17.9333 51.5732 18.4667 51.9598 18.84C52.3598 19.2 52.8465 19.38 53.4198 19.38C54.2732 19.38 54.8665 19.02 55.1998 18.3H58.8398C58.6532 19.0333 58.3132 19.6933 57.8198 20.28C57.3398 20.8667 56.7332 21.3267 55.9998 21.66C55.2665 21.9933 54.4465 22.16 53.5398 22.16C52.4465 22.16 51.4732 21.9267 50.6198 21.46C49.7665 20.9933 49.0998 20.3267 48.6198 19.46C48.1398 18.5933 47.8998 17.58 47.8998 16.42C47.8998 15.26 48.1332 14.2467 48.5998 13.38C49.0798 12.5133 49.7465 11.8467 50.5998 11.38C51.4532 10.9133 52.4332 10.68 53.5398 10.68C54.6198 10.68 55.5798 10.9067 56.4198 11.36C57.2598 11.8133 57.9132 12.46 58.3798 13.3C58.8598 14.14 59.0998 15.12 59.0998 16.24ZM55.5998 15.34C55.5998 14.7533 55.3998 14.2867 54.9998 13.94C54.5998 13.5933 54.0998 13.42 53.4998 13.42C52.9265 13.42 52.4398 13.5867 52.0398 13.92C51.6532 14.2533 51.4132 14.7267 51.3198 15.34H55.5998ZM67.7041 10.72C69.0107 10.72 70.0507 11.1467 70.8241 12C71.6107 12.84 72.0041 14 72.0041 15.48V22H68.6041V15.94C68.6041 15.1933 68.4107 14.6133 68.0241 14.2C67.6374 13.7867 67.1174 13.58 66.4641 13.58C65.8107 13.58 65.2907 13.7867 64.9041 14.2C64.5174 14.6133 64.3241 15.1933 64.3241 15.94V22H60.9041V10.84H64.3241V12.32C64.6707 11.8267 65.1374 11.44 65.7241 11.16C66.3107 10.8667 66.9707 10.72 67.7041 10.72Z" fill="white"/>
<path d="M75.9806 22.16C75.3806 22.16 74.8873 21.9867 74.5006 21.64C74.1273 21.28 73.9406 20.84 73.9406 20.32C73.9406 19.7867 74.1273 19.34 74.5006 18.98C74.8873 18.62 75.3806 18.44 75.9806 18.44C76.5673 18.44 77.0473 18.62 77.4206 18.98C77.8073 19.34 78.0006 19.7867 78.0006 20.32C78.0006 20.84 77.8073 21.28 77.4206 21.64C77.0473 21.9867 76.5673 22.16 75.9806 22.16Z" fill="#957AFF"/>
</g>
<defs>
<filter id="filter0_d_1_88" x="0.23999" y="0.97998" width="82.7607" height="26.18" filterUnits="userSpaceOnUse" color-interpolation-filters="sRGB">
<feFlood flood-opacity="0" result="BackgroundImageFix"/>
<feColorMatrix in="SourceAlpha" type="matrix" values="0 0 0 0 0 0 0 0 0 0 0 0 0 0 0 0 0 0 127 0" result="hardAlpha"/>
<feOffset/>
<feGaussianBlur stdDeviation="2.5"/>
<feComposite in2="hardAlpha" operator="out"/>
<feColorMatrix type="matrix" values="0 0 0 0 0 0 0 0 0 0 0 0 0 0 0 0 0 0 0.25 0"/>
<feBlend mode="normal" in2="BackgroundImageFix" result="effect1_dropShadow_1_88"/>
<feBlend mode="normal" in="SourceGraphic" in2="effect1_dropShadow_1_88" result="shape"/>
</filter>
</defs>
</svg>
